nColumns=46
nRows=13
DataType=double
version=3
OpenSimVersion=4.5
endheader
time	ground_force_1_vx	ground_force_1_vy	ground_force_1_vz	ground_force_1_px	ground_force_1_py	ground_force_1_pz	ground_moment_1_mx	ground_moment_1_my	ground_moment_1_mz	ground_force_2_vx	ground_force_2_vy	ground_force_2_vz	ground_force_2_px	ground_force_2_py	ground_force_2_pz	ground_moment_2_mx	ground_moment_2_my	ground_moment_2_mz	ground_force_3_vx	ground_force_3_vy	ground_force_3_vz	ground_force_3_px	ground_force_3_py	ground_force_3_pz	ground_moment_3_mx	ground_moment_3_my	ground_moment_3_mz	ground_force_4_vx	ground_force_4_vy	ground_force_4_vz	ground_force_4_px	ground_force_4_py	ground_force_4_pz	ground_moment_4_mx	ground_moment_4_my	ground_moment_4_mz	ground_force_5_vx	ground_force_5_vy	ground_force_5_vz	ground_force_5_px	ground_force_5_py	ground_force_5_pz	ground_moment_5_mx	ground_moment_5_my	ground_moment_5_mz
3.234	2.38985609030351	9.641329306759872	-0.4387735680211337	280.5033418597459	1.717587598793368e-14	-251.8872975167555	-1.598459345077288e-14	261.0482216080911	9.787740602580379e-31	1.150651492935139	9.641329306759872	-0.7897996911196971	888.689038816342	5.441650934118856e-14	-225.226551526476	1.209372523775359e-14	-197.5055215295335	-7.405270951091251e-31	139.2310434364844	758.8723165518786	12.37352849420858	1745.182946314875	1.068616354565529e-13	-245.0346808088404	1.568323152153236e-13	-2561.266078097233	-9.603209641565737e-30	0.08851165330270198	13.49786102946382	-3.773487413127441	543.3052426826532	3.326785132056436e-14	-628.9218268156986	-1.257687669744637e-14	205.395983661622	7.701115895399316e-31	1.150651492935139	6.485985170002095	-5.704108880308922	1122.803566893027	6.87518897133388e-14	-721.4924505036372	-5.166944063203215e-14	843.8260022074353	3.163840754187619e-30
3.2345	1.858776959124952	11.04370447865222	-0.6142829952295871	282.882930257752	1.732158375367899e-14	-242.4128657615663	-2.457859807541641e-14	401.3989681356125	1.5050050730294e-30	1.150651492935139	8.589547927840613	-0.9653107335907408	901.7745344527432	5.521776485850733e-14	-243.3599134326565	2.433279089132017e-15	-39.73846321774018	-1.489953723968856e-31	139.4080667430898	756.7687537940401	12.19801745173753	1745.616297837259	1.068881705842926e-13	-245.4583412681984	1.549529920171134e-13	-2530.57440112525	-9.488134284603165e-30	0.6195815731189203	14.19904861540999	-3.948998455598485	546.2785528088584	3.344991405701084e-14	-629.9503247465416	-1.560884245873307e-14	254.9117422198882	9.557659477741377e-31	1.681721412751357	8.238954134867527	-5.704108880308922	1150.819030528772	7.046734210674605e-14	-700.1917854018335	-4.579201087881655e-14	747.8402901260793	2.803951977463173e-30
3.235	1.327697827946394	7.88836034189444	-0.2632641408126802	205.3109669471056	1.257167092508105e-14	-267.457604085876	-8.134552075673294e-15	132.8473169788528	4.980976580985379e-31	1.150651492935139	7.187172755948268	-0.9653107335907408	907.3000944539745	5.555610782695755e-14	-242.8548601877311	7.291338139690511e-15	-119.076588364368	-4.464656957136501e-31	139.5850900496952	756.7687537940401	12.19801745173753	1745.277157903574	1.068674042525801e-13	-245.4583412681984	1.547135520719961e-13	-2526.664050070824	-9.473472816484368e-30	0.265534959908108	14.19904861540999	-3.597976370656397	531.1452464371115	3.252326629657704e-14	-607.2103575985025	-3.028534095787395e-14	494.5971520761706	-1.13686837721616e-13	1.681721412751357	8.238954134867527	-5.177575752895791	1156.01800253789	7.078568732823719e-14	-688.3324861365655	-3.443189092920827e-14	562.3154521480168	2.108345250752285e-30
3.2355	1.858776959124952	8.589547927840613	0.0877547136042266	228.1246482031227	1.396860601142851e-14	-269.3708943826564	-1.762509222942339e-14	287.8395998208571	1.079225639172012e-30	1.681721412751358	7.88836034189444	-0.4387776061776095	879.9912120316336	5.388392105461699e-14	-247.0806317441636	4.622487855696347e-15	-75.49095557861585	-2.830457478288022e-31	139.5850900496952	754.3145972432285	12.37352849420858	1745.538068225026	1.068833804020816e-13	-245.0932286707057	1.573344605338392e-13	-2569.466733483998	-9.633957174417086e-30	0.2655349599081082	12.09548585757148	-3.948998455598485	550.694639438592	3.372032137480388e-14	-623.9304850717081	-1.83612388212665e-14	299.861786011286	1.124301617542207e-30	1.681721412751357	8.589547927840613	-5.353086795366835	1158.017267740425	7.090810701478375e-14	-696.143041375734	-3.735520675897933e-14	610.0568226689929	2.287346719443581e-30
3.236	2.212829713243991	10.34251689270604	0.7897924224380403	261.0831465784316	1.598673198842978e-14	-251.2470785595268	-1.292953014899411e-14	211.1552515875786	7.91705385572242e-31	1.150651492935139	8.940141720813699	-0.4387776061776095	877.9057601184654	5.375622395410514e-14	-252.35310125965	1.230104798151322e-15	-20.08913588812331	-7.532219518359085e-32	140.2931832761168	753.2617202587062	12.54903953667962	1745.758239200281	1.068968619860872e-13	-245.2841075553439	1.555134351212479e-13	-2539.727131602718	-9.52245152728229e-30	0.2655349599081082	11.74489206459839	-3.773487413127441	556.4572162704466	3.407317743840245e-14	-643.7187129535148	-7.808371189465544e-15	127.5203788537566	4.781248391866695e-31	1.327674799540545	9.290735513786785	-5.353086795366835	1179.928555906154	7.224978646065151e-14	-678.7099866350223	-2.89845081888704e-14	473.3529407670937	1.774789258918019e-30
3.2365	2.212829713243991	10.34251689270604	-0.2632641408126802	269.3662545251616	1.649392607012752e-14	-263.9112739808611	-1.477342935603943e-14	241.2684108810028	9.046116486651614e-31	1.327674799540545	11.04370447865222	-0.7897996911196971	875.1509538756997	5.358754072173143e-14	-227.8578861025298	1.959906187489421e-15	-32.00769705769834	-1.200096419569006e-31	140.8242531959331	749.4051885360022	11.84699536679545	1746.525930170397	1.069438695005515e-13	-245.4330348865034	1.579245959276858e-13	-2579.104375851699	-9.670092545473976e-30	-0.2655349599081101	11.74489206459839	-3.597976370656397	549.0727019449196	3.362100634680172e-14	-632.7160946812165	-7.81035862432243e-15	127.5528361281033	4.782465344734694e-31	1.150651492935139	9.290735513786785	-5.528597837837879	1170.66963013556	7.168284077022646e-14	-682.2155656631204	-3.406262928585098e-14	556.2849518663945	2.085734496273015e-30
3.237	1.681750582065433	10.69311068567913	-0.4387735680211337	274.2770738584495	1.679462702901262e-14	-249.796632929068	-9.190936469901374e-15	150.0993833699718	5.627825464515696e-31	1.504698106145951	11.3942982716253	-0.7897996911196971	891.1067158287328	5.456454936191839e-14	-235.4834855417564	1.726986676423091e-15	-28.20383277244485	-1.057474352725832e-31	141.1782998091439	750.1063761219484	11.32046223938231	1746.361007914112	1.069337709248882e-13	-245.3919686927207	1.628513189066188e-13	-2659.563868047542	-9.971767321795779e-30	-0.08851165330270402	12.09548585757148	-3.948998455598485	557.7187550166825	3.415042440778135e-14	-631.921495734821	-1.392426827007448e-14	227.4005579366899	8.526155283707881e-31	0.7966048797243267	7.88836034189444	-4.826553667953704	1159.046651528607	7.09711385928483e-14	-704.2889266155147	-2.638954557423636e-14	430.9739851949115	1.615893625922088e-30
3.2375	2.38985609030351	6.836578962975182	0.08775471360422656	203.5850070146701	1.246598635974536e-14	-277.7330085704352	-1.647693149038359e-14	269.0887119756566	1.008921070473425e-30	1.150651492935139	12.09548585757148	0.08775552123552181	881.1716243712058	5.395620046428355e-14	-233.2813673047269	-4.89499553667739e-14	-128.9100416467811	2.997320307916273e-30	141.7093697289601	746.9510319851906	11.49597328185336	1746.967921199803	1.069709336455222e-13	-245.2813156047808	1.54850647469759e-13	-2528.902987825912	-9.481867488486779e-30	0.4425582665135143	11.74489206459839	-4.826553667953704	541.899200737167	3.318175608216403e-14	-627.4389396388287	-3.078003737570774e-14	502.6761576829826	1.884733712489819e-30	1.504698106145951	8.589547927840613	-5.177575752895791	1152.989280364651	7.060023158248899e-14	-707.3548228556766	-4.296358435425161e-14	701.6485795604829	2.630760802966577e-30
3.238	2.38985609030351	7.187172755948268	0.26326414081268	220.207771766566	1.34838371420648e-14	-264.9267907057331	-1.383472050214698e-14	225.9381319051215	8.47132309002628e-31	1.858744719356763	9.641329306759872	-0.6142886486486533	884.3931679710531	5.415346311717688e-14	-228.5318388358214	1.634978119182347e-15	-26.70121900160409	-1.00113536016631e-31	142.2404396487763	746.9510319851906	10.96944015444023	1746.854652671612	1.069639979484976e-13	-245.2395922281491	1.615221696778469e-13	-2637.857213856352	-9.89038040436554e-30	0.2655349599081082	12.09548585757148	-4.475531583011616	543.6119819189244	3.328663368175798e-14	-637.3358989263572	-2.44222476956781e-14	398.8455726611431	1.4954313734248e-30	1.150651492935139	9.290735513786785	-5.177575752895791	1147.617584434754	7.027131007116197e-14	-702.9467842486746	-4.209370394269608e-14	687.4423543507133	2.577495989883954e-30
3.2385	2.566882467363029	9.290735513786785	-0.9653018496464939	275.1953179221392	1.68508532616843e-14	-257.4264506245154	-2.285585793935636e-14	373.2644866302594	2.842170943040401e-14	1.327674799540545	9.290735513786785	0.2632665637065656	888.1493741864758	5.438346441310962e-14	-236.3551964204785	7.415667584814135e-15	-121.1070422913319	-4.540786785641706e-31	142.5944862619871	747.3016257781637	11.14495119691127	1746.45695070653	1.0693964572657e-13	-245.217898521408	1.494435403545453e-13	-2440.598227318991	-9.150777667422113e-30	1.150651492935139	12.09548585757148	-3.597976370656397	547.2996655327012	3.351243917845197e-14	-629.1997836808093	-1.724789346767058e-14	281.6794765589431	1.056128876360866e-30	2.212791332567575	9.641329306759872	-5.528597837837879	1163.252822004256	7.122869225333189e-14	-702.7268672164828	-4.000869885883229e-14	653.3916372735046	2.449826249775966e-30
3.239	2.566882467363029	9.641329306759872	-0.4387735680211337	267.2117905639328	1.636200320042766e-14	-268.5957743578096	9.865238676899806e-14	245.5312170510803	-6.040716484245008e-30	0.9736281863297328	10.69311068567913	-0.9653107335907408	870.1330986192085	5.328028570280909e-14	-240.85610243776	5.678151074870114e-15	-92.73124428730745	-5.684341886080801e-14	142.9485328751979	744.8474692273521	11.14495119691127	1746.553493529969	1.069455572695552e-13	-245.0640993863138	1.609832590497961e-13	-2629.056135399675	-9.857381645582098e-30	0.9736281863297327	11.3942982716253	-3.948998455598485	543.9024188426456	3.330441781420745e-14	-642.1655844659317	-3.097701104254614e-14	505.892981782397	1.896794871020317e-30	1.327674799540545	10.34251689270604	-5.704108880308922	1165.911978395119	7.1391518621457e-14	-692.8845236422468	-3.107551837943961e-14	507.50172867925	1.902826705761273e-30
3.2395	1.681750582065433	8.589547927840613	0.08775471360422661	243.0437363923008	1.488213669128221e-14	-265.6200118265014	-1.207117147343108e-14	197.137190606067	7.391460753448108e-31	1.504698106145951	9.991923099732958	-0.4387776061776095	880.7233887721152	5.392875394969904e-14	-221.0467053022699	1.204702750968786e-14	-196.7428897552416	-7.376676839489674e-31	143.1255561818033	744.1462816414059	11.6714843243244	1746.778751384501	1.06959350335082e-13	-245.1484426234472	1.496555192269111e-13	-2444.060105021417	-9.163757629798595e-30	0.2655349599081082	11.04370447865222	-4.124509498069528	538.0512182921552	3.294613511294109e-14	-637.596491546572	-2.907175627610509e-14	474.777810162832	1.780131663456204e-30	1.327674799540545	9.641329306759872	-5.002064710424747	1131.969907896586	6.931316622183394e-14	-689.250861567043	-5.298346385427639e-14	865.285629965563	3.244301470843953e-30
3.24	1.681750582065433	7.88836034189444	0.08775471360422661	248.8410322684402	1.523711868320343e-14	-275.5371961055592	-1.537150407871659e-14	251.0357123281395	9.412331634040379e-31	2.03576802596217	9.991923099732958	-0.6142886486486533	910.8377902098869	5.577272921614932e-14	-227.5307216836873	1.143693341648271e-14	-186.7792970911376	-7.003101950278477e-31	143.4796027950142	740.6403437116751	10.79392911196918	1747.331665708815	1.069932065729557e-13	-245.060024606411	1.64166757152027e-13	-2681.046604887651	-1.005231468363154e-29	0.7966048797243266	11.3942982716253	-3.597976370656397	540.1120898978311	3.307232710370831e-14	-630.7936172739072	-1.609973177913338e-14	262.9285732072732	9.858242495223309e-31	1.681721412751357	9.641329306759872	-5.177575752895791	1185.3564462077	7.258214888484709e-14	-682.6038788894867	7.11626966521147e-14	694.4719260950717	-4.357458433685317e-30
